<svg width="1168" height="822" viewBox="0 0 1168 822" fill="none" xmlns="http://www.w3.org/2000/svg">
<g id="undraw_windy_day_x63l 1" clip-path="url(#clip0)">
<g id="petal-3">
<path id="Vector" d="M54.8504 519.631C30.292 536.868 -13 621.589 -13 621.589C0.853218 622.826 14.7953 623.198 28.7133 622.704L23.8414 600.21L41.9494 621.806C49.0141 621.166 55.993 619.972 62.7957 618.238L55.2976 583.618L78.7099 611.541C78.883 611.424 79.0617 611.311 79.2307 611.193C103.789 593.956 118.24 559.487 111.507 534.203C104.775 508.919 79.4087 502.395 54.8504 519.631Z" fill="#F9F9FE"/>
</g>
<g id="petal-4">
<path id="Vector_2" d="M498.279 711.498C473.927 732.075 431 833.217 431 833.217C444.737 834.693 458.561 835.138 472.362 834.548L467.531 807.694L485.487 833.476C492.492 832.713 499.412 831.287 506.157 829.217L498.722 787.887L521.938 821.221C522.109 821.082 522.286 820.947 522.454 820.806C546.805 800.229 561.134 759.078 554.459 728.894C547.783 698.709 522.63 690.921 498.279 711.498Z" fill="#F9F9FE"/>
</g>
<g id="petal-2">
<path id="Vector_3" d="M275.786 85.5387C250.038 104.294 198 190.878 198 190.878C211.394 191.09 224.788 190.448 238.016 188.96L236.078 167.155L250.866 187.118C257.926 185.933 264.795 184.25 271.369 182.096L268.387 148.536L287.507 174.348C287.688 174.221 287.874 174.096 288.051 173.967C313.799 155.213 331.927 120.213 328.54 95.7945C325.153 71.3756 301.534 66.784 275.786 85.5387Z" fill="#F9F9FE"/>
</g>
<g id="petal-6">
<path id="Vector_4" d="M427.862 363.407C417.508 375.447 410.93 405.791 407 432.148L426.515 447.888L405.585 442.281C403.01 462.01 402 477.407 402 477.407C402 477.407 486.021 463.638 505.933 440.484C525.845 417.331 524.511 381.307 502.952 360.023C481.393 338.738 447.774 340.254 427.862 363.407Z" fill="#F9F9FE"/>
</g>
<g id="petal-5">
<path id="Vector_5" d="M896.745 611.776C890.87 618.923 887.133 636.932 884.899 652.574L895.962 661.913L884.094 658.588C882.629 670.297 882.053 679.435 882.053 679.435C882.053 679.435 929.701 671.253 940.998 657.509C952.295 643.766 951.546 622.387 939.326 609.758C927.106 597.129 908.042 598.033 896.745 611.776Z" fill="#F9F9FE"/>
</g>
<g id="petal-1">
<path id="Vector_6" d="M1040.73 334.146C1018.38 346.936 979 409.799 979 409.799C991.603 410.716 1004.29 410.993 1016.95 410.626L1012.52 393.935L1028.99 409.96C1035.42 409.485 1041.77 408.599 1047.95 407.313L1041.13 381.625L1062.43 402.343C1062.59 402.257 1062.75 402.173 1062.91 402.085C1085.25 389.295 1098.39 363.719 1092.27 344.958C1086.15 326.198 1063.07 321.357 1040.73 334.146Z" fill="#F9F9FE"/>
</g>
</g>
<defs>
<clipPath id="clip0">
<rect width="1168" height="822" fill="white"/>
</clipPath>
</defs>
</svg>
